<?xml version="1.0" encoding="UTF-8" standalone="no"?>
<svg
   xmlns:dc="http://purl.org/dc/elements/1.1/"
   xmlns:cc="http://creativecommons.org/ns#"
   xmlns:rdf="http://www.w3.org/1999/02/22-rdf-syntax-ns#"
   xmlns:svg="http://www.w3.org/2000/svg"
   xmlns="http://www.w3.org/2000/svg"
   xmlns:sodipodi="http://sodipodi.sourceforge.net/DTD/sodipodi-0.dtd"
   xmlns:inkscape="http://www.inkscape.org/namespaces/inkscape"
   width="1052.7876mm"
   height="275.72629mm"
   viewBox="0 0 1052.7876 275.72629"
   version="1.1"
   id="svg8"
   inkscape:version="1.0 (4035a4fb49, 2020-05-01)"
   sodipodi:docname="ThinkServer (2008).svg">
  <defs
     id="defs2" />
  <sodipodi:namedview
     id="base"
     pagecolor="#ffffff"
     bordercolor="#666666"
     borderopacity="1.0"
     inkscape:pageopacity="0.0"
     inkscape:pageshadow="2"
     inkscape:zoom="0.17222959"
     inkscape:cx="2127.8096"
     inkscape:cy="112.44555"
     inkscape:document-units="mm"
     inkscape:current-layer="layer1"
     inkscape:document-rotation="0"
     showgrid="false"
     inkscape:window-width="1280"
     inkscape:window-height="961"
     inkscape:window-x="-8"
     inkscape:window-y="-8"
     inkscape:window-maximized="1" />
  <metadata
     id="metadata5">
    <rdf:RDF>
      <cc:Work
         rdf:about="">
        <dc:format>image/svg+xml</dc:format>
        <dc:type
           rdf:resource="http://purl.org/dc/dcmitype/StillImage" />
        <dc:title />
      </cc:Work>
    </rdf:RDF>
  </metadata>
  <g
     inkscape:label="Layer 1"
     inkscape:groupmode="layer"
     id="layer1"
     transform="translate(427.23958,-12.89449)">
    <g
       aria-label="ThinkServer"
       id="text896"
       style="font-weight:500;font-size:352.777px;line-height:1.25;font-family:'Helvetica Ultra Compressed';-inkscape-font-specification:'Helvetica Ultra Compressed Medium';stroke-width:0.264583">
      <path
         d="m -427.23958,32.504686 v 32.808261 h 32.80827 V 283.68192 h 37.39436 V 65.312947 h 32.45548 V 32.504686 Z"
         style="stroke-width:0.264583"
         id="path898" />
      <path
         d="m -279.61894,32.504686 h -33.86659 V 283.68192 h 33.86659 V 120.69894 c 0,-5.64443 0.35278,-12.3472 8.81943,-12.3472 7.05554,0 7.40832,6.70277 7.40832,12.3472 v 162.98298 h 33.86659 V 115.76006 c 0,-21.166621 -0.35278,-36.336032 -26.1055,-36.336032 -9.1722,0 -18.3444,4.586101 -23.28328,14.11108 h -0.70556 z"
         style="stroke-width:0.264583"
         id="path900" />
      <path
         d="M -179.66177,283.68192 V 81.893467 h -33.86659 V 283.68192 Z"
         style="stroke-width:0.264583"
         id="path902"
         sodipodi:nodetypes="ccccc" />
      <path
         d="m -163.2797,283.68192 h 33.8666 V 120.69894 c 0,-5.64443 0.35277,-12.3472 8.81942,-12.3472 7.05554,0 7.40832,6.70277 7.40832,12.3472 v 162.98298 h 33.866592 V 115.76006 c 0,-21.166621 -0.352777,-36.336032 -26.105502,-36.336032 -9.1722,0 -18.3444,4.586101 -23.28328,14.11108 h -0.70555 V 81.893467 h -33.8666 z"
         style="stroke-width:0.264583"
         id="path904" />
      <path
         d="M -30.867034,283.68192 V 177.49604 h 1.411109 l 18.697181,106.18588 H 23.813403 L 3.3523363,172.90993 22.755072,81.893467 h -33.866593 l -18.344404,92.780353 h -1.411109 V 32.504686 H -64.733626 V 283.68192 Z"
         style="stroke-width:0.264583"
         id="path906" />
      <path
         d="M 72.617883,188.43212 H 35.22352 v 57.85543 c 0,32.80826 25.752722,42.33324 48.683227,42.33324 23.283283,0 49.036003,-9.52498 49.036003,-42.33324 v -44.4499 c 0,-25.39995 -60.324867,-79.7276 -60.324867,-97.71923 V 73.074041 c 0,-12.699972 3.880547,-15.522188 11.641642,-15.522188 7.408317,0 11.288864,2.822216 11.288864,15.522188 V 122.8156 H 132.94275 V 69.899048 c 0,-32.808261 -25.75272,-42.333241 -49.036003,-42.333241 -22.930505,0 -48.683227,9.52498 -48.683227,42.333241 V 105.8823 c 0,40.92214 60.324869,75.49428 60.324869,110.77198 v 26.45828 c 0,12.69997 -3.880547,15.52219 -11.288864,15.52219 -7.761095,0 -11.641642,-2.82222 -11.641642,-15.52219 z"
         style="stroke-width:0.264583"
         id="path908" />
      <path
         d="m 200.31766,204.30709 v 47.27212 c 0,9.1722 -3.17499,9.87775 -8.11387,9.87775 -4.93888,0 -8.11387,-0.70555 -8.11387,-9.87775 v -64.20542 h 50.09433 v -74.08317 c 0,-20.813843 -16.22774,-33.866592 -41.98046,-33.866592 -25.75272,0 -41.98046,13.052749 -41.98046,33.866592 v 138.99414 c 0,20.81385 16.22774,33.86659 41.98046,33.86659 25.75272,0 41.98046,-13.05274 41.98046,-33.86659 v -47.97767 z m 0,-40.56936 h -16.22774 v -49.74156 c 0,-9.1722 3.17499,-9.87775 8.11387,-9.87775 4.93888,0 8.11387,0.70555 8.11387,9.87775 z"
         style="stroke-width:0.264583"
         id="path910" />
      <path
         d="m 248.06384,283.68192 h 33.86659 V 120.69894 c 0,-5.64443 0.35278,-12.3472 8.81943,-12.3472 7.05554,0 7.40832,6.70277 7.40832,12.3472 v 66.67485 h 33.86659 v -69.49707 c 0,-21.166619 0.70555,-38.452692 -26.1055,-38.452692 -9.1722,0 -18.3444,4.586101 -23.28328,14.11108 h -0.70556 V 81.893467 h -33.86659 z"
         style="stroke-width:0.264583"
         id="path912" />
      <path
         d="m 365.65981,283.68192 h 42.33324 L 435.86243,81.893467 h -33.51381 l -10.58331,92.427573 c -2.82222,23.28329 -2.46944,46.91934 -4.23333,70.20263 h -1.41111 c -0.70555,-30.6916 -0.70555,-59.26654 -4.5861,-92.42758 L 373.4209,81.893467 h -33.86659 z"
         style="stroke-width:0.264583"
         id="path914" />
      <path
         d="m 493.83915,204.30709 v 47.27212 c 0,9.1722 -3.175,9.87775 -8.11388,9.87775 -4.93887,0 -8.11387,-0.70555 -8.11387,-9.87775 v -64.20542 h 50.09434 v -74.08317 c 0,-20.813843 -16.22774,-33.866592 -41.98047,-33.866592 -25.75272,0 -41.98046,13.052749 -41.98046,33.866592 v 138.99414 c 0,20.81385 16.22774,33.86659 41.98046,33.86659 25.75273,0 41.98047,-13.05274 41.98047,-33.86659 v -47.97767 z m 0,-40.56936 H 477.6114 v -49.74156 c 0,-9.1722 3.175,-9.87775 8.11387,-9.87775 4.93888,0 8.11388,0.70555 8.11388,9.87775 z"
         style="stroke-width:0.264583"
         id="path916" />
      <path
         d="m 541.58533,283.68192 h 33.86659 V 120.69894 c 0,-5.64443 0.35278,-12.3472 8.81942,-12.3472 7.05554,0 7.40832,6.70277 7.40832,12.3472 v 66.67485 h 33.86659 v -69.49707 c 0,-21.166619 0.70556,-38.452692 -26.1055,-38.452692 -9.1722,0 -18.3444,4.586101 -23.28328,14.11108 h -0.70555 V 81.893467 h -33.86659 z"
         style="stroke-width:0.264583"
         id="path918" />
    </g>
    <path
       d="m -169.11748,40.38477 a 27.688413,27.49028 0 0 1 -27.68841,27.49028 27.688413,27.49028 0 0 1 -27.68842,-27.49028 27.688413,27.49028 0 0 1 27.68842,-27.490279 27.688413,27.49028 0 0 1 27.68841,27.490279 z"
       style="fill:#d40000;stroke:#000000;stroke-width:0;stroke-miterlimit:4;stroke-dasharray:none"
       id="path862" />
  </g>
</svg>
